<mxfile host="app.diagrams.net" modified="2023-07-27T05:56:23.551Z" agent="Mozilla/5.0 (Macintosh; Intel Mac OS X 10_15_7) AppleWebKit/537.36 (KHTML, like Gecko) Chrome/114.0.0.0 Safari/537.36" version="21.6.3" etag="unYwQaF0Q8OLNrrYtX-H" type="github">
  <diagram name="第 1 页" id="oxg19eHA6-CcMaRxcR4n">
    <mxGraphModel>
      <root>
        <mxCell id="0" />
        <mxCell id="1" parent="0" />
      </root>
    </mxGraphModel>
  </diagram>
</mxfile>
